HIERARCHY
ROOT Hips
{
	OFFSET 0.000000 0.000000 0.000000
	CHANNELS 6 Xposition Yposition Zposition Zrotation Yrotation Xrotation 
	JOINT LowerBack
	{
		OFFSET 0.000000 0.000000 0.000000
		CHANNELS 3 Zrotation Yrotation Xrotation
		JOINT Spine
		{
			OFFSET 0.028270 2.035590 -0.193380
			CHANNELS 3 Zrotation Yrotation Xrotation
			JOINT Spine1
			{
				OFFSET 0.056720 2.048850 -0.042750
				CHANNELS 3 Zrotation Yrotation Xrotation
				JOINT Neck
				{
					OFFSET 0.000000 0.000000 0.000000
					CHANNELS 3 Zrotation Yrotation Xrotation
					JOINT Neck1
					{
						OFFSET -0.054170 1.746240 0.172020
						CHANNELS 3 Zrotation Yrotation Xrotation
						JOINT Head
						{
							OFFSET 0.104070 1.761360 -0.123970
							CHANNELS 3 Zrotation Yrotation Xrotation
							End Site
							{
								OFFSET 0.000000 0.000000 0.000000
							}
						}
					}
				}
				JOINT LeftShoulder
				{
					OFFSET 0.000000 0.000000 0.000000
					CHANNELS 3 Zrotation Yrotation Xrotation
					JOINT LeftArm
					{
						OFFSET 3.362410 1.200890 -0.311210
						CHANNELS 3 Zrotation Yrotation Xrotation
						JOINT LeftForeArm
						{
							OFFSET 4.983000 -0.000000 -0.000000
							CHANNELS 3 Zrotation Yrotation Xrotation
							JOINT LeftHand
							{
								OFFSET 3.483560 -0.000000 -0.000000
								CHANNELS 3 Zrotation Yrotation Xrotation
								JOINT LeftFingerBase
								{
									OFFSET 0.000000 0.000000 0.000000
									CHANNELS 3 Zrotation Yrotation Xrotation
									JOINT LeftHandIndex1
									{
										OFFSET 0.715260 -0.000000 -0.000000
										CHANNELS 3 Zrotation Yrotation Xrotation
										End Site
										{
											OFFSET 0.000000 0.000000 0.000000
										}
									}
								}
								JOINT LThumb
								{
									OFFSET 0.000000 0.000000 0.000000
									CHANNELS 3 Zrotation Yrotation Xrotation
									End Site
									{
										OFFSET 0.000000 0.000000 0.000000
									}
								}
							}
						}
					}
				}
				JOINT RightShoulder
				{
					OFFSET 0.000000 0.000000 0.000000
					CHANNELS 3 Zrotation Yrotation Xrotation
					JOINT RightArm
					{
						OFFSET -3.136600 1.374050 -0.404650
						CHANNELS 3 Zrotation Yrotation Xrotation
						JOINT RightForeArm
						{
							OFFSET -5.241900 -0.000000 -0.000000
							CHANNELS 3 Zrotation Yrotation Xrotation
							JOINT RightHand
							{
								OFFSET -3.444170 -0.000000 -0.000000
								CHANNELS 3 Zrotation Yrotation Xrotation
								JOINT RightFingerBase
								{
									OFFSET 0.000000 0.000000 0.000000
									CHANNELS 3 Zrotation Yrotation Xrotation
									JOINT RightHandIndex1
									{
										OFFSET -0.622530 -0.000000 -0.000000
										CHANNELS 3 Zrotation Yrotation Xrotation
										End Site
										{
											OFFSET 0.000000 0.000000 0.000000
										}
									}
								}
								JOINT RThumb
								{
									OFFSET 0.000000 0.000000 0.000000
									CHANNELS 3 Zrotation Yrotation Xrotation
									End Site
									{
										OFFSET 0.000000 0.000000 0.000000
									}
								}
							}
						}
					}
				}
			}
		}
	}
}
}
MOTION
Frames: 9
Frame Time: 0.008333
-22.336988 15.719191 -1.348913 -49.101316 84.526103 -23.901178 -1.804924 0.290790 12.169619 -1.098314 0.682022 -0.856128 -5.590552 0.740057 -1.574091 6.781129 -7.613756 -7.377887 -2.120974 -0.131710 -0.392658 0.000000 0.000000 0.000000 -0.308469 12.203912 2.230539 -72.939369 21.988526 9.210342 -0.141182 -87.141082 -0.002990 1.293410 2.140888 0.023123 -0.013442 0.165484 0.000000 0.000000 0.000000 0.000000 0.000000 0.000000 0.000000 4.427345 -0.827107 -0.043716 68.826424 6.808496 11.347664 -0.032136 89.568727 -0.017768 -3.087255 4.721504 -0.140580 0.051065 -0.433324 0.000000 0.000000 0.000000 0.000000 0.000000 0.000000 0.000000 
-22.197820 15.708848 -1.379126 -49.541425 84.326258 -24.649730 -1.890534 0.293212 12.181330 -1.124902 0.685161 -0.856952 -5.640741 0.744092 -1.571620 6.842318 -7.569648 -7.358756 -2.134864 -0.133144 -0.383852 0.000000 0.000000 0.000000 -0.350793 12.209851 2.224884 -72.947252 21.814229 8.959545 -0.152984 -86.886310 -0.003007 1.296000 2.165827 0.023525 -0.014451 0.164123 0.000000 0.000000 0.000000 0.000000 0.000000 0.000000 0.000000 4.543224 -0.786959 -0.046341 69.116639 6.745821 11.361278 -0.016863 89.122613 -0.016656 -2.928756 4.655048 -0.131488 0.047521 -0.429564 0.000000 0.000000 0.000000 0.000000 0.000000 0.000000 0.000000 
-22.059477 15.699724 -1.408908 -49.762057 84.111336 -25.167564 -1.983481 0.300136 12.185356 -1.152698 0.692238 -0.859171 -5.687920 0.751851 -1.569574 6.905409 -7.522034 -7.346950 -2.149010 -0.134476 -0.377350 0.000000 0.000000 0.000000 -0.392815 12.223500 2.221077 -72.957440 21.624907 8.668228 -0.164173 -86.643011 -0.003075 1.312851 2.198247 0.024227 -0.015703 0.162841 0.000000 0.000000 0.000000 0.000000 0.000000 0.000000 0.000000 4.664237 -0.737752 -0.044759 69.407114 6.681653 11.377656 -0.000730 88.649134 -0.015497 -2.757950 4.592920 -0.122096 0.043885 -0.425776 0.000000 0.000000 0.000000 0.000000 0.000000 0.000000 0.000000 
-21.922455 15.691959 -1.437967 -49.771729 83.886600 -25.460796 -2.086783 0.310838 12.182796 -1.182324 0.702550 -0.863123 -5.732203 0.762612 -1.570221 6.969847 -7.473032 -7.341150 -2.163165 -0.135707 -0.372797 0.000000 0.000000 0.000000 -0.442480 12.233329 2.218600 -72.960149 21.430064 8.334939 -0.174228 -86.424057 -0.003201 1.346067 2.238539 0.025333 -0.017190 0.161633 0.000000 0.000000 0.000000 0.000000 0.000000 0.000000 0.000000 4.788773 -0.682394 -0.037516 69.699734 6.617323 11.400078 0.016396 88.146161 -0.014343 -2.578050 4.536976 -0.112703 0.040244 -0.422005 0.000000 0.000000 0.000000 0.000000 0.000000 0.000000 0.000000 
-21.786965 15.685625 -1.466075 -49.584788 83.656278 -25.544433 -2.205204 0.326345 12.176340 -1.214609 0.717142 -0.867824 -5.772637 0.777478 -1.572040 7.035329 -7.410254 -7.340781 -2.177378 -0.136831 -0.370227 0.000000 0.000000 0.000000 -0.478372 12.254056 2.219380 -72.961872 21.198864 7.988118 -0.184278 -86.200016 -0.003400 1.399107 2.279798 0.026840 -0.019055 0.160691 0.000000 0.000000 0.000000 0.000000 0.000000 0.000000 0.000000 4.914451 -0.607448 -0.027266 69.995802 6.535100 11.410706 0.034274 87.624507 -0.013159 -2.390300 4.488542 -0.103309 0.036452 -0.418325 0.000000 0.000000 0.000000 0.000000 0.000000 0.000000 0.000000 
-21.653020 15.680907 -1.493082 -49.235473 83.429197 -25.449241 -2.337359 0.343049 12.165389 -1.249324 0.732429 -0.874476 -5.810195 0.792813 -1.579098 7.099429 -7.348206 -7.342606 -2.191288 -0.137886 -0.368519 0.000000 0.000000 0.000000 -0.531586 12.253118 2.220430 -72.940311 20.971652 7.606673 -0.192741 -86.012352 -0.003655 1.468249 2.326657 0.028848 -0.021118 0.159848 0.000000 0.000000 0.000000 0.000000 0.000000 0.000000 0.000000 5.039723 -0.531768 -0.010268 70.297574 6.454161 11.432240 0.053574 87.067393 -0.011979 -2.203656 4.449357 -0.094315 0.032852 -0.414699 0.000000 0.000000 0.000000 0.000000 0.000000 0.000000 0.000000 
-21.521187 15.677853 -1.518901 -48.761989 83.209684 -25.216576 -2.484490 0.361390 12.154217 -1.286430 0.748924 -0.881041 -5.843436 0.809249 -1.587155 7.161081 -7.272900 -7.346802 -2.205037 -0.138858 -0.367973 0.000000 0.000000 0.000000 -0.573301 12.256860 2.224003 -72.908181 20.702634 7.230257 -0.201411 -85.815769 -0.003976 1.554440 2.370643 0.031159 -0.023535 0.159332 0.000000 0.000000 0.000000 0.000000 0.000000 0.000000 0.000000 5.162194 -0.441056 0.009016 70.604069 6.357181 11.445128 0.073878 86.486274 -0.010837 -2.020381 4.418808 -0.085820 0.029279 -0.411137 0.000000 0.000000 0.000000 0.000000 0.000000 0.000000 0.000000 
-21.390877 15.676574 -1.543491 -48.175655 83.005672 -24.855825 -2.644698 0.377887 12.141429 -1.325601 0.763142 -0.888984 -5.873418 0.823225 -1.600409 7.217160 -7.198289 -7.349008 -2.218458 -0.139818 -0.367071 0.000000 0.000000 0.000000 -0.634203 12.229892 2.226967 -72.845615 20.436998 6.834388 -0.208738 -85.651302 -0.004337 1.651406 2.416948 0.033770 -0.026078 0.158935 0.000000 0.000000 0.000000 0.000000 0.000000 0.000000 0.000000 5.280526 -0.353957 0.034239 70.915945 6.262945 11.472995 0.095915 85.863192 -0.009768 -1.850020 4.398555 -0.078126 0.026087 -0.407582 0.000000 0.000000 0.000000 0.000000 0.000000 0.000000 0.000000 
-21.262719 15.677078 -1.566931 -47.525738 82.820398 -24.420255 -2.814502 0.391990 12.131253 -1.365841 0.774657 -0.896128 -5.899066 0.834451 -1.613992 7.266328 -7.116792 -7.350231 -2.231689 -0.140748 -0.366272 0.000000 0.000000 0.000000 -0.692748 12.196343 2.230712 -72.763819 20.136295 6.452821 -0.216296 -85.480388 -0.004737 1.756663 2.460613 0.036583 -0.028830 0.158797 0.000000 0.000000 0.000000 0.000000 0.000000 0.000000 0.000000 5.393486 -0.263648 0.061474 71.230101 6.163679 11.505570 0.119353 85.205108 -0.008794 -1.694176 4.387045 -0.071229 0.023173 -0.403987 0.000000 0.000000 0.000000 0.000000 0.000000 0.000000 0.000000 
